<svg width="210mm" height="297mm" viewBox="0 0 210 297" version="1.1" id="svg1" xmlns="http://www.w3.org/2000/svg"><defs id="defs1"><filter style="color-interpolation-filters:srgb" id="filter26" x="-.039" y="-.039" width="1.078" height="1.078"><feGaussianBlur stdDeviation="1.332" id="feGaussianBlur26"/></filter><filter style="color-interpolation-filters:srgb" id="filter27" x="-.019" y="-.019" width="1.038" height="1.038"><feGaussianBlur stdDeviation=".587" id="feGaussianBlur27"/></filter><pattern patternUnits="userSpaceOnUse" width="208.394" height="198.195" patternTransform="translate(-351.617 142.13)" preserveAspectRatio="xMidYMid" id="pattern1"><path style="fill:#0f0;stroke:#000;stroke-width:.365001px" id="path1" d="m102.836 61.3 23.047 46.697 51.533 7.489-37.29 36.348 8.803 51.325-46.093-24.232-46.092 24.232 8.803-51.325-37.29-36.348 51.533-7.489z" transform="matrix(1.38982 0 0 1.38982 -38.727 -84.623)"/></pattern></defs><g id="layer3" style="fill:gray"><ellipse style="fill:silver;fill-opacity:1;stroke:none;stroke-width:.155px;stroke-dasharray:none" id="path27" cx="105.833" cy="235.479" rx="76.729" ry="7.938"/></g><g id="layer1"><path id="path18" style="fill:#1a1a1a;stroke:#000;stroke-width:.380571px;display:inline" d="M189.99 144.937c0 49.529-24.23 90.714-84.447 92.13-55.091 1.295-85.903-42.601-85.903-92.13 0-49.528 41.764-123.048 85.903-123.048 52.268 0 84.448 73.52 84.448 123.048z"/><path id="path23" style="fill:#0f0;stroke:#000;stroke-width:.365001px" d="M186.826 144.473c0 47.502-23.239 87.003-80.993 88.36-52.837 1.242-82.389-40.858-82.389-88.36S63.5 26.458 105.834 26.458c50.129 0 80.992 70.513 80.992 118.015z"/><path id="path24" style="fill:#e4ff24;stroke:none;stroke-width:.318212px;fill-opacity:1" d="M176.124 145.22c0 41.413-20.26 75.85-70.61 77.033-46.065 1.083-71.829-35.62-71.829-77.033 0-41.413 34.921-102.887 71.828-102.887 43.704 0 70.61 61.474 70.61 102.887z"/></g><g id="layer2"><ellipse style="fill:#00dc00;fill-opacity:1;stroke:none;stroke-width:.376472px;filter:url(#filter26)" id="ellipse26" cx="106.058" cy="153.458" rx="41.047" ry="40.822"/><circle style="fill:#f0ff0e;fill-opacity:1;stroke:none;stroke-width:.339109px;filter:url(#filter27)" id="circle26" cx="105.833" cy="153.458" r="36.872"/><circle style="fill:#260c28;fill-opacity:1;stroke:#000;stroke-width:.327499px;display:inline" id="path25" cx="105.942" cy="153.458" r="35.61"/><ellipse style="fill:#4d1851;fill-opacity:1;stroke:#000;stroke-width:.302582px" id="circle25" cx="105.827" cy="150.513" rx="33.934" ry="31.898"/><ellipse style="fill:#69216f;fill-opacity:1;stroke:none;stroke-width:.155px;stroke-dasharray:none" id="ellipse25" cx="105.833" cy="142.122" rx="17.162" ry="16.628"/></g></svg>