<?xml version="1.0" encoding="UTF-8" standalone="no"?>
<!-- Created with Inkscape (http://www.inkscape.org/) -->

<svg
   width="1427.5775"
   height="699.13788"
   viewBox="0 0 377.7132 184.98022"
   version="1.1"
   id="svg1"
   inkscape:version="1.3-dev (23a9a6e, 2022-09-15)"
   sodipodi:docname="leaf-fin.svg"
   xmlns:inkscape="http://www.inkscape.org/namespaces/inkscape"
   xmlns:sodipodi="http://sodipodi.sourceforge.net/DTD/sodipodi-0.dtd"
   xmlns="http://www.w3.org/2000/svg"
   xmlns:svg="http://www.w3.org/2000/svg">
  <sodipodi:namedview
     id="namedview1"
     pagecolor="#ffffff"
     bordercolor="#eeeeee"
     borderopacity="1"
     inkscape:showpageshadow="0"
     inkscape:pageopacity="0"
     inkscape:pagecheckerboard="0"
     inkscape:deskcolor="#505050"
     inkscape:document-units="mm"
     showgrid="false"
     inkscape:zoom="0.1917561"
     inkscape:cx="-544.9631"
     inkscape:cy="1757.4408"
     inkscape:window-width="1920"
     inkscape:window-height="1080"
     inkscape:window-x="0"
     inkscape:window-y="1080"
     inkscape:window-maximized="1"
     inkscape:current-layer="layer1" />
  <defs
     id="defs1" />
  <g
     inkscape:label="Layer 1"
     inkscape:groupmode="layer"
     id="layer1"
     transform="translate(-80.555904,-721.75747)">
    <path
       style="opacity:1;fill:#00b106;fill-opacity:1;stroke:none;stroke-width:0.918485;stroke-dasharray:none;stroke-opacity:1"
       d="m 177.9547,820.18894 c -4.21991,-2.16688 -8.37198,-4.48548 -12.4439,-6.95141 -35.35579,-21.36666 -64.55507,-53.8876 -84.954898,-91.48001 18.206222,38.62634 45.668518,73.23254 80.825578,97.46975 1.60572,1.10698 3.22702,2.19173 4.86322,3.25386 30.06804,19.51855 65.16592,31.39907 100.96048,33.21073 18.31763,0.92711 36.76942,-0.74214 54.60743,-5.00832 h 10e-6 c 18.10085,-4.32904 35.55585,-11.3365 51.64252,-20.69601 l 1e-5,-2e-5 c 4.61084,-2.68267 9.10785,-5.55784 13.48096,-8.61097 -4.19972,3.30148 -8.54356,6.43908 -13.02392,9.39653 -15.63171,10.31763 -32.90421,18.42685 -51.15063,23.87823 h -10e-6 c -17.98083,5.37022 -36.87036,8.15776 -55.92054,8.23578 -32.30675,0.11081 -64.82722,-7.63147 -94.46355,-22.12233 91.9858,134.2792 313.13982,44.67034 283.11211,-99.85003 C 408.97008,837.3659 297.2465,687.08687 177.9547,820.18894 Z"
       id="path3"
       sodipodi:nodetypes="cccsssssssccsscccc" />
  </g>
</svg>
