<svg width="210mm" height="297mm" viewBox="0 0 210 297" version="1.1" id="svg1" xmlns="http://www.w3.org/2000/svg"><defs id="defs1"><filter style="color-interpolation-filters:srgb" id="filter31" x="-.1" y="-.148" width="1.199" height="1.296"><feGaussianBlur stdDeviation="7.376" id="feGaussianBlur31"/></filter></defs><g id="layer1" style="display:inline"><path id="path31" style="opacity:.775679;fill:#000;stroke-width:.20282px;filter:url(#filter31);display:inline" d="M105.753 82.47c-23.673-.048-47.35 3.5-70.16 10.51L24.34 96.443c-2.574.79-4.832 2.636-6.254 5.045-1.423 2.408-2.013 5.36-1.654 8.182l6.418 50.47c.76 5.972 4.613 11.398 9.818 13.61L95.47 200.44a21.75 21.75 0 0 0 16.687.104l65.418-26.882c5.223-2.146 9.11-7.558 9.867-13.523l6.409-50.47c.358-2.824-.23-5.78-1.65-8.192-1.42-2.413-3.672-4.265-6.244-5.067l-10.082-3.142c-22.786-7.104-46.45-10.75-70.122-10.798Z"/><path id="path30" style="opacity:.849563;fill:#fff;stroke-width:.198351px;display:inline" d="M105.717 82.545c-23.124-.047-46.252 3.426-68.533 10.29l-10.993 3.39c-2.514.774-4.72 2.581-6.109 4.94-1.39 2.357-1.966 5.248-1.615 8.01l6.27 49.417c.74 5.847 4.505 11.16 9.59 13.326l61.345 26.133a21.2 21.2 0 0 0 16.3.101l63.901-26.32c5.102-2.101 8.899-7.4 9.639-13.24l6.26-49.416c.35-2.765-.225-5.66-1.612-8.022-1.386-2.362-3.587-4.175-6.1-4.96l-9.847-3.077c-22.258-6.956-45.373-10.524-68.496-10.572Z"/><path id="path1" style="opacity:.849563;fill:#00b1ff;fill-opacity:1;stroke-width:.198351px;display:inline" d="m173.756 94.58 9.847 3.077a9.235 10.275 0 0 1 6.647 11.326l-6.26 49.416a13.53 15.053 0 0 1-8.7 12.015l-63.902 26.32a21.445 23.858 0 0 1-15.115-.093l-61.345-26.133a13.706 15.248 0 0 1-8.67-12.109l-6.27-49.417a9.2 10.234 0 0 1 6.654-11.293l10.993-3.387a253.33 281.835 0 0 1 136.121.278Z"/><g id="layer2" style="display:inline" transform="matrix(1 0 0 1.03982 2.063 -9.669)"><path id="ellipse22" style="opacity:1;fill:#0bc9fa;fill-opacity:.789527;stroke:none;stroke-width:2.17699px;stroke-dasharray:none;stroke-opacity:1;display:inline" d="M103.65 90.157a253.33 271.04 0 0 0-14.647.476 39.326 37.888 0 0 0-15.792 30.322 39.326 37.888 0 0 0 39.326 37.889 39.326 37.888 0 0 0 39.326-37.889 39.326 37.888 0 0 0-12.866-28.027 253.33 271.04 0 0 0-35.347-2.771z"/><ellipse style="opacity:1;fill:#7ce2fc;fill-opacity:.789527;stroke:none;stroke-width:1.67537px;stroke-dasharray:none;stroke-opacity:1;display:inline" id="ellipse23" cx="111.768" cy="120.955" rx="30.125" ry="29.293"/><ellipse style="opacity:1;fill:#fff;fill-opacity:.976471;stroke:none;stroke-width:1.14683px;stroke-dasharray:none;stroke-opacity:1;display:inline" id="path22" cx="112.455" cy="121.187" rx="20.273" ry="20.396"/></g><path id="rect2" style="opacity:1;fill:#000050;stroke-width:.33968px;display:inline" d="M60.625 99.518c-3.393 0-6.635 3.305-9.235 5.906L23.123 133.69l3.135 24.708c.696 5.49 4.016 10.126 8.67 12.108l61.345 26.134a19.423 19.423 0 0 0 15.115.094l63.902-26.32c4.665-1.922 8.006-6.536 8.7-12.016l2.39-18.872-29.883-26.977c-5.2-5.2-5.266-5.188-13.597 2.27l-8.112 8.113 3.079 7.802-5.563-5.318-20.438-20.582c-6.692-8.25-6.804-5.723-10.958-2.373l-15.909 12.83 3.08 7.802-5.563-5.318-12.352-12.352c-2.6-2.6-6.145-5.906-9.539-5.906z"/><path id="path12" style="opacity:.849563;fill:#65dcfb;fill-opacity:.992157;stroke-width:.198351px;display:inline" d="M160.814 136.617c-28.419.797-44.029 2.41-53.726 4.671-11.366 2.65-6.267 4.953-9.076 9.3-3.268 5.055-17.95 13.737-34.89 21.222-3.737 1.65-8.129 3.342-13.258 5.06l7.283 3.103c28.326-5.766 39.492-11.965 50.438-16.702 14.005-6.062 3.762-12.799 9.386-14.83 1.47-.53 21.441-7.84 33.749-10.301 2.776-.555 6.111-1.064 10.094-1.523z"/><path id="rect14" style="opacity:.849563;fill:#2e40f0;fill-opacity:1;stroke:none;stroke-width:.170211px;display:inline" d="m43.795 145.817-6.635 11.495h2.446l-5.293 9.17h2.938l-2.323 4.025 9.45 4.026H55.11l-4.647-8.05h2.626l-5.294-9.171h2.634z"/><path id="path15" style="opacity:1;fill:#1838a7;fill-opacity:.976471;stroke:none;stroke-width:.300932px;display:inline" d="m101.218 149.806-11.325 21.05h4.176l-9.035 16.796h5.015l-2.774 5.156 8.998 3.833a21.445 23.858 0 0 0 15.115.094l4.992-2.056-3.78-7.027h4.482l-9.035-16.795h4.495z"/></g></svg>